<svg viewBox="0 0 820 520" xmlns="http://www.w3.org/2000/svg" font-family="-apple-system, BlinkMacSystemFont, 'Segoe UI', Roboto, Helvetica, Arial, sans-serif">
<rect x="0" y="0" width="820" height="520" rx="10" fill="#ffffff"/>
<text x="28" y="34" font-size="17" font-weight="700" fill="#243845">Pipeline funnel — TiC × HPT → 41 unified rate rows</text>
<text x="28" y="52" font-size="11" fill="#6b7b87">generated from out/unified_rates.csv.stats.json</text>
<text x="28" y="76" font-size="12" font-weight="600" fill="#3b6ea5">TiC (payer)</text>
<rect x="28" y="84" width="168" height="50" rx="7" fill="#f4f7fa" stroke="#cfd9e2" stroke-width="1"/>
<rect x="28" y="84" width="5" height="50" rx="2" fill="#3b6ea5"/>
<text x="44" y="103" font-size="11" fill="#6b7b87">input rows</text>
<text x="44" y="123" font-size="18" font-weight="600" fill="#243845">222</text>
<line x1="196" y1="109.0" x2="215" y2="109.0" stroke="#6b7b87" stroke-width="1.5"/><path d="M215,105.0 L222,109.0 L215,113.0 Z" fill="#6b7b87"/>
<rect x="222" y="84" width="168" height="50" rx="7" fill="#f4f7fa" stroke="#cfd9e2" stroke-width="1"/>
<rect x="222" y="84" width="5" height="50" rx="2" fill="#3b6ea5"/>
<text x="238" y="103" font-size="11" fill="#6b7b87">after filters</text>
<text x="238" y="123" font-size="18" font-weight="600" fill="#243845">219</text>
<text x="238" y="148" font-size="10" fill="#6b7b87">−3 percentage</text>
<line x1="390" y1="109.0" x2="409" y2="109.0" stroke="#6b7b87" stroke-width="1.5"/><path d="M409,105.0 L416,109.0 L409,113.0 Z" fill="#6b7b87"/>
<rect x="416" y="84" width="168" height="50" rx="7" fill="#f4f7fa" stroke="#cfd9e2" stroke-width="1"/>
<rect x="416" y="84" width="5" height="50" rx="2" fill="#3b6ea5"/>
<text x="432" y="103" font-size="11" fill="#6b7b87">match groups</text>
<text x="432" y="123" font-size="18" font-weight="600" fill="#243845">34</text>
<text x="28" y="170" font-size="12" font-weight="600" fill="#2a9d8f">HPT (hospital)</text>
<rect x="28" y="178" width="168" height="50" rx="7" fill="#f4f7fa" stroke="#cfd9e2" stroke-width="1"/>
<rect x="28" y="178" width="5" height="50" rx="2" fill="#2a9d8f"/>
<text x="44" y="197" font-size="11" fill="#6b7b87">input rows</text>
<text x="44" y="217" font-size="18" font-weight="600" fill="#243845">2,950</text>
<line x1="196" y1="203.0" x2="215" y2="203.0" stroke="#6b7b87" stroke-width="1.5"/><path d="M215,199.0 L222,203.0 L215,207.0 Z" fill="#6b7b87"/>
<rect x="222" y="178" width="168" height="50" rx="7" fill="#f4f7fa" stroke="#cfd9e2" stroke-width="1"/>
<rect x="222" y="178" width="5" height="50" rx="2" fill="#2a9d8f"/>
<text x="238" y="197" font-size="11" fill="#6b7b87">eligible postings</text>
<text x="238" y="217" font-size="18" font-weight="600" fill="#243845">309</text>
<text x="238" y="242" font-size="10" fill="#6b7b87">−410 LOCAL · −265 no-$ · −1,966 payer</text>
<line x1="390" y1="203.0" x2="409" y2="203.0" stroke="#6b7b87" stroke-width="1.5"/><path d="M409,199.0 L416,203.0 L409,207.0 Z" fill="#6b7b87"/>
<rect x="416" y="178" width="168" height="50" rx="7" fill="#f4f7fa" stroke="#cfd9e2" stroke-width="1"/>
<rect x="416" y="178" width="5" height="50" rx="2" fill="#2a9d8f"/>
<text x="432" y="197" font-size="11" fill="#6b7b87">match groups</text>
<text x="432" y="217" font-size="18" font-weight="600" fill="#243845">37</text>
<line x1="410.0" y1="236" x2="410.0" y2="262" stroke="#6b7b87" stroke-width="1.2"/>
<rect x="295.0" y="262" width="230" height="40" rx="20" fill="#243845"/>
<text x="410.0" y="280" font-size="12.5" font-weight="600" fill="#ffffff" text-anchor="middle">two-pass match</text>
<text x="410.0" y="294" font-size="10" fill="#c7d3dc" text-anchor="middle">Pass 1 strict 20 · Pass 2 relaxed 13</text>
<text x="28" y="340" font-size="12" font-weight="600" fill="#243845">unified output — 41 rows</text>
<line x1="410.0" y1="302" x2="410.0" y2="343" stroke="#6b7b87" stroke-width="1.2"/>
<path d="M410.0,350 l-6,-8 h12 Z" fill="#6b7b87"/>
<rect x="28.0" y="350" width="372.7" height="46" fill="#2f5d8a"/>
<text x="214.3" y="379.0" font-size="15" font-weight="700" fill="#ffffff" text-anchor="middle">20</text>
<rect x="400.7" y="350" width="242.2" height="46" fill="#7fb0d3"/>
<text x="521.8" y="379.0" font-size="15" font-weight="700" fill="#243845" text-anchor="middle">13</text>
<rect x="642.9" y="350" width="74.5" height="46" fill="#e07a3e"/>
<text x="680.2" y="379.0" font-size="15" font-weight="700" fill="#ffffff" text-anchor="middle">4</text>
<rect x="717.5" y="350" width="74.5" height="46" fill="#f2b885"/>
<text x="754.7" y="379.0" font-size="15" font-weight="700" fill="#243845" text-anchor="middle">4</text>
<line x1="335.5" y1="396" x2="335.5" y2="412" stroke="#2f8f5b" stroke-width="1.2" stroke-dasharray="3 2"/>
<path d="M335.5,420 l-6,-8 h12 Z" fill="#2f8f5b"/>
<rect x="28" y="420" width="764" height="50" rx="8" fill="#eaf5ee" stroke="#2f8f5b" stroke-width="1"/>
<rect x="28" y="420" width="5" height="50" rx="2" fill="#2f8f5b"/>
<text x="46" y="441" font-size="12.5" font-weight="700" fill="#2f8f5b">Pass 3 · rate-value corroboration</text>
<text x="46" y="459" font-size="11.5" fill="#243845">6 blocks / 11 rows flagged — exact cross-side $ agreement, independent of billing class</text>
<text x="778" y="450" font-size="11" font-weight="600" fill="#2f8f5b" text-anchor="end">e.g. Mount Sinai × UHC × 43239 = $6,438</text>
<rect x="28.0" y="485" width="13" height="13" rx="3" fill="#2f5d8a"/>
<text x="47.0" y="496" font-size="12" fill="#243845">strict (pass 1) · 20</text>
<rect x="219.0" y="485" width="13" height="13" rx="3" fill="#7fb0d3"/>
<text x="238.0" y="496" font-size="12" fill="#243845">relaxed (pass 2) · 13</text>
<rect x="410.0" y="485" width="13" height="13" rx="3" fill="#e07a3e"/>
<text x="429.0" y="496" font-size="12" fill="#243845">hpt_only · 4</text>
<rect x="601.0" y="485" width="13" height="13" rx="3" fill="#f2b885"/>
<text x="620.0" y="496" font-size="12" fill="#243845">tic_only · 4</text>
</svg>